<?xml version="1.0" encoding="utf-8"?>
<!-- Generator: Adobe Illustrator 25.2.1, SVG Export Plug-In . SVG Version: 6.00 Build 0)  -->
<svg version="1.1" xmlns="http://www.w3.org/2000/svg" xmlns:xlink="http://www.w3.org/1999/xlink" x="0px" y="0px"
	 viewBox="0 0 66.28 53.3" style="enable-background:new 0 0 66.28 53.3;" xml:space="preserve">
<style type="text/css">
	.st0{fill:none;stroke:#AFE2E2;stroke-width:2;stroke-linejoin:bevel;stroke-miterlimit:10;}
	.st1{fill:none;stroke:#AFE2E2;stroke-width:2;stroke-miterlimit:10;}
	.st2{fill:none;stroke:#AFE2E2;stroke-width:3;stroke-linejoin:bevel;stroke-miterlimit:10;}
	.st3{fill:#055B5B;}
	.st4{fill:none;}
	.st5{fill:#FFFFFF;}
	.st6{fill:none;stroke:#A1F5EA;stroke-width:2;stroke-linejoin:bevel;stroke-miterlimit:10;}
	.st7{fill:none;stroke:#A1F5EA;stroke-width:2;stroke-miterlimit:10;}
	.st8{fill:none;stroke:#A1F5EA;stroke-width:3;stroke-linejoin:bevel;stroke-miterlimit:10;}
	.st9{fill:#029986;}
	.st10{fill:#14E5CB;stroke:#333333;stroke-width:0.825;stroke-miterlimit:10;}
	.st11{fill:#CCCCCC;stroke:#333333;stroke-width:0.9001;stroke-miterlimit:10;}
	.st12{fill:#14E5CB;stroke:#333333;stroke-width:1.375;stroke-miterlimit:10;}
	.st13{fill:#CCCCCC;stroke:#333333;stroke-width:1.5002;stroke-miterlimit:10;}
	.st14{fill:#14E5CB;}
	.st15{fill:#662D91;}
	.st16{fill:#F7931E;}
	.st17{fill:#A1F5EA;}
	.st18{fill:#0071BC;}
	.st19{fill:#14E5CB;stroke:#000000;stroke-width:0.75;stroke-miterlimit:10;}
	.st20{fill:#14E5CB;stroke:#14E5CB;stroke-width:1.0749;stroke-miterlimit:10;}
	.st21{fill:#14E5CB;stroke:#14E5CB;stroke-width:0.9931;stroke-miterlimit:10;}
	.st22{fill:#14E5CB;stroke:#14E5CB;stroke-width:1.0286;stroke-miterlimit:10;}
	.st23{fill:#333333;stroke:#333333;stroke-width:0.636;stroke-miterlimit:10;}
</style>
<g id="Layer_1">
</g>
<g id="Layer_2">
	<g>
		<path class="st14" d="M36.98,21.23c0,10.47-16.7,28.14-16.7,28.14S3.58,31.7,3.58,21.23s7.48-18.96,16.7-18.96
			S36.98,10.76,36.98,21.23z"/>
		<g>
			<g>
				<path class="st5" d="M24.05,22.71c-0.18,0.15-0.39,0.23-0.63,0.23H9.84c-0.25,0-0.46-0.08-0.63-0.23
					c-0.18-0.16-0.26-0.38-0.26-0.67c0-0.29,0.09-0.51,0.26-0.66c0.17-0.15,0.39-0.23,0.63-0.23h2.26v-8.97H9.93
					c-0.25,0-0.46-0.08-0.63-0.23c-0.18-0.15-0.26-0.38-0.26-0.66c0-0.29,0.09-0.51,0.26-0.66c0.17-0.16,0.39-0.23,0.63-0.23h13.05
					c0.25,0,0.46,0.08,0.63,0.23c0.17,0.15,0.26,0.38,0.26,0.66c0,0.29-0.09,0.51-0.26,0.66c-0.18,0.16-0.39,0.23-0.63,0.23H21.1
					v8.97h2.32c0.25,0,0.46,0.08,0.63,0.23c0.17,0.15,0.26,0.38,0.26,0.66C24.31,22.33,24.23,22.55,24.05,22.71z M14.11,21.14h4.98
					v-8.97h-4.98V21.14z"/>
			</g>
			<g>
				<path class="st5" d="M15.01,32.65c0,0.25,0.05,0.41,0.14,0.49c0.09,0.08,0.22,0.12,0.39,0.12h13.3c0.25,0,0.46,0.08,0.63,0.23
					c0.18,0.15,0.26,0.38,0.26,0.66c0,0.29-0.09,0.51-0.26,0.67c-0.18,0.15-0.39,0.23-0.63,0.23H15.22c-0.49,0-0.89-0.07-1.19-0.2
					c-0.3-0.13-0.53-0.31-0.68-0.53c-0.15-0.22-0.25-0.47-0.29-0.76C13.02,33.29,13,33,13,32.71v-3.49c0-0.29,0.02-0.56,0.06-0.82
					c0.04-0.26,0.14-0.48,0.29-0.66c0.15-0.19,0.38-0.33,0.68-0.45c0.3-0.11,0.7-0.17,1.19-0.17h11.35c0.16,0,0.29-0.04,0.39-0.12
					c0.09-0.08,0.14-0.25,0.14-0.49v-2.91c0-0.25-0.05-0.41-0.14-0.5c-0.09-0.08-0.22-0.12-0.39-0.12H13.89
					c-0.25,0-0.46-0.08-0.63-0.23C13.08,22.58,13,22.36,13,22.07c0-0.29,0.09-0.51,0.26-0.66s0.39-0.23,0.63-0.23h12.99
					c0.5,0,0.89,0.06,1.19,0.19c0.3,0.12,0.53,0.29,0.68,0.51c0.15,0.22,0.25,0.46,0.29,0.74c0.04,0.28,0.06,0.56,0.06,0.85v3.28
					c0,0.29-0.02,0.57-0.06,0.84c-0.04,0.27-0.14,0.5-0.29,0.7c-0.16,0.2-0.38,0.35-0.68,0.46c-0.3,0.11-0.7,0.17-1.19,0.17H15.53
					c-0.17,0-0.29,0.04-0.39,0.12c-0.09,0.08-0.14,0.25-0.14,0.49V32.65z"/>
			</g>
		</g>
		<g>
			<path class="st23" d="M39.26,41.96c0,0.19-0.06,0.34-0.18,0.44c-0.12,0.1-0.26,0.15-0.42,0.15h-9.15c-0.17,0-0.31-0.05-0.42-0.15
				c-0.12-0.1-0.18-0.25-0.18-0.44c0-0.19,0.06-0.34,0.18-0.44c0.12-0.1,0.26-0.15,0.42-0.15h1.5v-6.64h-1.44
				c-0.17,0-0.31-0.05-0.42-0.16c-0.12-0.1-0.17-0.25-0.17-0.44s0.06-0.34,0.17-0.44c0.12-0.1,0.26-0.15,0.42-0.15h8.8
				c0.17,0,0.31,0.05,0.42,0.15c0.12,0.1,0.17,0.25,0.17,0.44s-0.06,0.34-0.17,0.44c-0.12,0.1-0.26,0.16-0.42,0.16h-1.26v6.64h1.55
				c0.16,0,0.31,0.05,0.42,0.15C39.21,41.62,39.26,41.76,39.26,41.96z M43.43,46.61c0-0.17-0.03-0.28-0.09-0.33
				c-0.06-0.05-0.15-0.08-0.26-0.08H30.16c-0.16,0-0.31-0.05-0.42-0.16c-0.12-0.1-0.18-0.25-0.18-0.44s0.06-0.34,0.18-0.44
				c0.12-0.1,0.26-0.15,0.42-0.15h13.13c0.33,0,0.59,0.05,0.79,0.14c0.2,0.1,0.35,0.22,0.45,0.37c0.1,0.15,0.17,0.32,0.2,0.52
				c0.03,0.19,0.04,0.38,0.04,0.58v3.5c0,0.21-0.06,0.36-0.19,0.46c-0.12,0.1-0.28,0.15-0.47,0.15c-0.19,0-0.35-0.05-0.48-0.15
				c-0.13-0.1-0.2-0.26-0.2-0.46V46.61z M32.36,41.36h3.42v-6.64h-3.42V41.36z M43.43,33.9c0-0.21,0.06-0.36,0.19-0.46
				c0.12-0.1,0.28-0.16,0.47-0.16s0.35,0.05,0.48,0.16c0.13,0.1,0.2,0.26,0.2,0.46v8.68c0,0.21-0.07,0.36-0.2,0.46
				c-0.13,0.1-0.29,0.16-0.48,0.16s-0.35-0.05-0.47-0.16c-0.12-0.1-0.19-0.26-0.19-0.46V33.9z"/>
		</g>
		<g>
			<path class="st23" d="M62.7,41.54c0,0.19-0.06,0.34-0.17,0.44c-0.12,0.1-0.26,0.15-0.42,0.15H45.62c-0.17,0-0.31-0.05-0.42-0.15
				c-0.12-0.1-0.17-0.25-0.17-0.44s0.06-0.34,0.17-0.44c0.12-0.1,0.26-0.15,0.42-0.15h16.49c0.17,0,0.31,0.05,0.42,0.15
				C62.65,41.2,62.7,41.35,62.7,41.54z M61.2,38.39c0,0.19-0.06,0.34-0.18,0.44c-0.12,0.1-0.26,0.15-0.42,0.15H47.12
				c-0.17,0-0.31-0.05-0.42-0.15c-0.12-0.1-0.17-0.25-0.17-0.44c0-0.19,0.06-0.34,0.17-0.44c0.12-0.1,0.26-0.16,0.42-0.16h2.35
				v-2.78h-2.51c-0.17,0-0.31-0.05-0.42-0.16c-0.12-0.1-0.18-0.25-0.18-0.44s0.06-0.34,0.18-0.44c0.12-0.1,0.26-0.15,0.42-0.15
				h13.81c0.16,0,0.31,0.05,0.42,0.15c0.12,0.1,0.18,0.25,0.18,0.44s-0.06,0.34-0.18,0.44c-0.12,0.1-0.26,0.16-0.42,0.16h-2.47v2.78
				h2.31c0.17,0,0.31,0.05,0.42,0.16C61.14,38.05,61.2,38.2,61.2,38.39z M47.97,49.42c0,0.17,0.03,0.27,0.09,0.33
				c0.06,0.05,0.15,0.08,0.26,0.08h12.63c0.16,0,0.3,0.05,0.42,0.15c0.12,0.1,0.18,0.25,0.18,0.44s-0.06,0.34-0.18,0.44
				c-0.12,0.1-0.26,0.15-0.42,0.15H48.11c-0.33,0-0.59-0.03-0.79-0.09s-0.35-0.15-0.45-0.26c-0.1-0.11-0.17-0.24-0.2-0.4
				c-0.03-0.16-0.04-0.33-0.04-0.53V48.3c0-0.19,0.01-0.38,0.04-0.55c0.03-0.17,0.09-0.32,0.2-0.44c0.1-0.12,0.25-0.22,0.45-0.3
				c0.2-0.08,0.46-0.11,0.79-0.11h11.33c0.11,0,0.2-0.03,0.26-0.08c0.06-0.05,0.09-0.17,0.09-0.33v-0.87c0-0.17-0.03-0.27-0.09-0.33
				s-0.15-0.08-0.26-0.08H47.21c-0.16,0-0.31-0.05-0.42-0.15c-0.12-0.1-0.18-0.25-0.18-0.44s0.06-0.34,0.18-0.44
				c0.12-0.1,0.26-0.16,0.42-0.16h12.45c0.33,0,0.59,0.03,0.79,0.09c0.2,0.06,0.35,0.15,0.45,0.27c0.1,0.12,0.17,0.25,0.2,0.41
				c0.03,0.16,0.04,0.33,0.04,0.53v1.5c0,0.19-0.01,0.37-0.04,0.53c-0.03,0.16-0.09,0.29-0.2,0.4c-0.1,0.11-0.25,0.2-0.45,0.26
				c-0.2,0.06-0.46,0.09-0.79,0.09H48.32c-0.11,0-0.2,0.03-0.26,0.08s-0.09,0.17-0.09,0.33V49.42z M50.81,37.79h6.14v-2.78h-6.14
				V37.79z"/>
		</g>
	</g>
</g>
</svg>
